<?xml version="1.0" encoding="UTF-8"?>
<!-- Generator: Adobe Illustrator 23.0.6, SVG Export Plug-In . SVG Version: 6.00 Build 0)  -->
<svg version="1.1" id="Camada_1" xmlns="http://www.w3.org/2000/svg" x="0px" y="0px" viewBox="0 0 1942.1 1023" style="enable-background:new 0 0 1942.1 1023;" xml:space="preserve">
<style type="text/css">
	.st0{fill-rule:evenodd;clip-rule:evenodd;fill:#00587D;}
	.st1{fill:#00AEEF;}
	.st2{fill:#FFCB05;}
	.st3{fill:#00904C;}
	.st4{fill:#ED1651;}
	.st5{fill:#ED1C24;}
	.st6{fill:#A6CE39;}
	.st7{fill:#A72C32;}
	.st8{fill:#A82073;}
	.st9{fill:#802E32;}
</style>
<path class="st0" d="M0,839.8V380.6h93v25.3c13-11,26.6-19.1,40.9-24.2c14.3-5.2,30.3-7.8,47.8-7.8c43.2,0,78.3,14.9,105.3,44.7  c27,29.7,40.5,68.7,40.5,116.5c0,47.7-13.5,86.3-40.5,115.9c-27,29.6-62.1,44.4-105.3,44.4c-16.9,0-32.4-2.4-46.5-7.2  s-27-12.1-38.7-22.1v173.7L0,839.8L0,839.8z M96.5,467.6v132c8.2,6.3,16.9,11.1,25.8,14.3c9,3.2,18.1,4.9,27.2,4.9  c23.8,0,42.6-7.5,56.2-22.6c13.6-15.1,20.5-35.7,20.5-61.9c0-25.8-6.8-46.6-20.3-62.2c-13.5-15.8-31.4-23.6-53.6-23.6  c-9.5,0-19,1.6-28.3,4.8C114.8,456.3,105.6,461.1,96.5,467.6z"/>
<path class="st0" d="M536.9,650.1c-15.3,15.6-31.3,27-47.7,34.1c-16.4,7-35.4,10.5-56.8,10.5c-33.7,0-59.7-10.2-77.9-30.7  c-18.2-20.5-27.3-49.9-27.3-88.3V380.6h97.2v181.8c0,22,3.5,37.9,10.5,48s18,15.1,32.9,15.1c13.3,0,26-4.1,37.7-12.2  c11.8-8.1,22.2-20.2,31.3-36.3V380.6H634v308.2h-97.2L536.9,650.1L536.9,650.1z"/>
<rect x="641" y="234.1" class="st0" width="97.2" height="454.6"/>
<path class="st0" d="M744.1,672.2v-68.7c19.5,8.9,37.6,15.8,54.1,20.6c16.6,4.9,30.5,7.3,41.8,7.3c15.4,0,27-2,34.7-5.9  c7.9-3.9,11.8-9.8,11.8-17.5c0-6.5-2.9-12.3-8.8-17.4c-5.9-5.1-19.2-12-40-20.6c-2.1-0.9-5.7-2.2-10.4-4.2  c-59-24.4-88.5-55.8-88.5-94.2c0-29.2,10.9-52.7,32.7-70.4c21.7-17.7,50.6-26.6,86.6-26.6c19.2,0,37.5,2,54.7,6.1  c17.3,4.1,34.1,10.3,50.2,18.5v67.9c-20.4-10.9-38.6-18.7-54.6-23.7c-15.9-5-30.6-7.5-44-7.5c-11.8,0-20.7,2.1-27.1,6.2  c-6.3,4.1-9.4,10-9.4,17.5c0,10,17.5,22.2,52.7,36.7c14.3,5.7,25.6,10.3,33.8,14.1c22.5,9.7,38.9,21.4,49.1,35.1  C973.9,559,979,576,979,596.2c0,31.8-11,56.4-32.9,73.4c-22.1,17.2-53.2,25.7-93.8,25.7c-20.1,0-39.2-1.9-57.3-5.7  C776.8,685.8,759.9,680.1,744.1,672.2"/>
<path class="st0" d="M1073,504.3l119.8-0.3c-1.8-19.9-7.8-35.5-18.1-46.7c-10.3-11.2-23.6-16.9-39.8-16.9  c-16.7,0-30.6,5.7-41.6,16.9C1082.4,468.5,1075.6,484.3,1073,504.3 M1273.1,672c-73.5,31.7-176.7,53-255.4-20.2  c-30.6-28.4-45.1-69.2-45.1-120.6c0-47.4,14.8-85.4,44.1-113.9c29.5-28.5,68.8-42.7,117.7-42.7c48.3,0,76.1,15.4,104,46.3  c28,30.8,41.9,73.4,41.9,127.6v3.2h-207.9v1.3c0,24.4,8.3,43.7,25.1,57.9c41.2,35.2,136.8,19.4,175.7-7.4L1273.1,672L1273.1,672z"/>
<path class="st0" d="M1278.7,672.2v-68.7c19.5,8.9,37.6,15.8,54.1,20.6c16.6,4.9,30.5,7.3,41.8,7.3c15.4,0,27-2,34.7-5.9  c7.9-3.9,11.8-9.8,11.8-17.5c0-6.5-2.9-12.3-8.8-17.4c-5.9-5.1-19.2-12-40-20.6c-2.1-0.9-5.7-2.2-10.4-4.2  c-59-24.4-88.5-55.8-88.5-94.2c0-29.2,10.9-52.7,32.7-70.4c21.7-17.7,50.6-26.6,86.6-26.6c19.2,0,37.5,2,54.7,6.1  c17.3,4.1,34.1,10.3,50.2,18.5v67.9c-20.4-10.9-38.6-18.7-54.6-23.7c-15.9-5-30.6-7.5-44-7.5c-11.8,0-20.7,2.1-27.1,6.2  c-6.3,4.1-9.4,10-9.4,17.5c0,10,17.5,22.2,52.7,36.7c14.3,5.7,25.6,10.3,33.8,14.1c22.5,9.7,38.9,21.4,49.1,35.1  c10.3,13.6,15.4,30.6,15.4,50.8c0,31.8-11,56.4-32.9,73.4c-22.1,17.2-53.2,25.7-93.8,25.7c-20.1,0-39.2-1.9-57.3-5.7  C1311.4,685.8,1294.5,680.1,1278.7,672.2"/>
<path class="st1" d="M1546.9,597.7c8.2-27.4,37-42.9,64.3-34.8s42.9,37,34.8,64.3c-21.3,71-69.4,126.7-130,159.3  c-60.5,32.6-133.4,42.1-204.3,20.8c-27.4-8.2-42.9-37-34.8-64.3c8.2-27.4,37-42.9,64.3-34.8c43.8,13.1,88.6,7.3,125.8-12.7  C1504.3,675.5,1533.8,641.3,1546.9,597.7"/>
<path class="st2" d="M1504.9,344.3c-24.9-14-33.8-45.5-19.8-70.4s45.5-33.8,70.4-19.8c81.7,46,137.1,120.9,160.5,204.7  c23.4,83.7,14.9,176.2-31.1,257.8c-14,24.9-45.5,33.8-70.4,19.8s-33.8-45.5-19.8-70.4c32.1-57,38-121.5,21.7-179.7  C1600.2,428.2,1561.7,376.3,1504.9,344.3"/>
<path class="st3" d="M1624.4,568.9c-2.6,33.1-12.3,66.3-29.7,97.2c-9.8,17.5-8.3,38.3,2.1,54c21.8-26.6,38.8-57.9,49.3-92.8  C1652.8,604.6,1643.3,581,1624.4,568.9z"/>
<path class="st4" d="M1200.3,307.4c-22.6,17.5-55.1,13.5-72.6-9.1s-13.5-55.1,9.1-72.6c89.6-69.6,198.8-96.4,303.1-83.3  c104.4,13.1,203.8,66,273.5,155.6c24.2,31.2,43.4,65.2,57.5,100.9c14.5,36.6,23.5,74.6,27,113c2.6,28.4-18.4,53.5-46.7,56  c-28.4,2.6-53.5-18.4-56-46.7c-2.7-28.6-9.3-57-20.2-84.2c-10.3-26.1-24.7-51.4-43.4-75.4c-52.1-67-126.3-106.6-204.3-116.3  C1349.1,235.4,1267.3,255.3,1200.3,307.4"/>
<path class="st5" d="M1555.4,254.1c-20.2-11.3-44.7-7.6-60.7,7.4c52.3,19.1,100.1,52.7,136.8,100c18.6,23.9,33,49.3,43.4,75.4  c10.8,27.3,17.5,55.7,20.2,84.2c1.8,20.3,15.3,36.9,33.2,43.6c1.5-35.9-2.7-71.6-12.3-105.9C1692.5,375,1637.1,300.1,1555.4,254.1z"/>
<path class="st6" d="M1759.6,472.9c-5.8-27.9,12.1-55.3,40.1-61.1c27.9-5.8,55.3,12.1,61.1,40.1c27.1,130.4-1.1,259.3-68.7,362.4  s-174.6,180.5-305,207.6c-27.9,5.8-55.3-12.1-61.1-40.1c-5.8-27.9,12.1-55.3,40.1-61.1c102.3-21.3,186.3-82.1,239.4-163.1  C1758.6,676.5,1780.9,575.2,1759.6,472.9"/>
<path class="st7" d="M1797.8,511.8c-2.8-30.6-9.1-60.9-18.9-90.5c-15.4,11.7-23.5,31.5-19.4,51.7c6.3,30.5,8.8,60.9,7.8,90.7  C1787,554.9,1799.9,534.4,1797.8,511.8z"/>
<path class="st8" d="M1438.4,103.1c-28.4-3.1-48.8-28.7-45.7-57c3.1-28.4,28.7-48.8,57-45.7c151.8,16.8,282.4,93.5,370.9,204  c88.5,110.6,134.9,254.9,118.1,406.6c-3.1,28.4-28.7,48.8-57,45.7c-28.4-3.1-48.8-28.7-45.7-57c13.7-123.5-24-240.8-95.8-330.6  C1668.1,179.2,1561.9,116.7,1438.4,103.1"/>
<path class="st9" d="M1816.8,411.2c19.1,58.9,26.4,122.8,19.1,188.4c-2.3,20.7,8,39.8,24.7,49.9c13.3-63.3,14.1-130.3,0.1-197.7  C1856.1,429.8,1838,414,1816.8,411.2z"/>
</svg>
